# Blender v2.79 (sub 0) OBJ File: 'Chess Scene.blend'
# www.blender.org
o Chessboard_Surround_Plane
v -24.000000 0.000000 23.999998
v 24.000000 0.000000 23.999998
v -24.000000 0.000000 -23.999998
v 24.000000 0.000000 -23.999998
v -24.000000 -1.000000 -23.999998
v -24.000000 -1.000000 23.999998
v 24.000000 -1.000000 23.999998
v 24.000000 -1.000000 -23.999998
v -31.199999 -3.000000 -31.199997
v -31.199999 -3.000000 31.199997
v 31.199999 -3.000000 31.199997
v 31.199999 -3.000000 -31.199997
v -29.699999 0.000000 -29.699997
v -31.199999 -1.500000 -31.199997
v -29.933876 -0.726459 -29.933874
v -30.473541 -1.266122 -30.473539
v -31.199999 -1.500000 31.199997
v -29.699999 0.000000 29.699997
v -30.473541 -1.266122 30.473539
v -29.933876 -0.726459 29.933874
v 31.199999 -1.500000 31.199997
v 29.699999 0.000000 29.699997
v 30.473541 -1.266122 30.473539
v 29.933876 -0.726459 29.933874
v 31.199999 -1.500000 -31.199997
v 29.699999 0.000000 -29.699997
v 30.473541 -1.266122 -30.473539
v 29.933876 -0.726459 -29.933874
vn 0.5773 0.5773 -0.5773
vn 0.3015 0.9045 0.3015
vn 0.3015 0.9045 -0.3015
vn -0.5773 0.5773 -0.5773
vn 0.5773 0.5773 0.5773
vn 0.5773 -0.5773 -0.5773
vn -0.6065 0.5141 -0.6065
vn 0.6065 0.5141 -0.6065
vn -0.5773 -0.5773 -0.5773
vn -0.6065 0.5141 0.6065
vn -0.5773 -0.5773 0.5773
vn 0.6065 0.5141 0.6065
vn 0.5773 -0.5773 0.5773
vn -0.3015 0.9045 0.3015
vn -0.3015 0.9045 -0.3015
vn -0.5773 0.5773 0.5773
vn 0.4804 0.7337 -0.4804
vn -0.4804 0.7337 0.4804
vn -0.2273 0.9469 -0.2273
vn -0.2273 0.9469 0.2273
vn -0.5018 0.7045 -0.5018
vn -0.5018 0.7045 0.5018
vn -0.4804 0.7337 -0.4804
vn 0.2273 0.9469 0.2273
vn 0.5018 0.7045 0.5018
vn 0.2273 0.9469 -0.2273
vn 0.5018 0.7045 -0.5018
vn 0.4804 0.7337 0.4804
s 1
f 6//1 3//2 1//3
f 7//4 5//5 6//1
f 12//6 14//7 25//8
f 9//9 17//10 14//7
f 10//11 21//12 17//10
f 11//13 25//8 21//12
f 5//5 4//14 3//2
f 7//4 1//3 2//15
f 8//16 2//15 4//14
f 26//17 3//2 4//14
f 2//15 26//17 4//14
f 18//18 2//15 1//3
f 12//6 10//11 9//9
f 17//10 16//19 14//7
f 19//20 15//21 16//19
f 20//22 13//23 15//21
f 21//12 19//20 17//10
f 23//24 20//22 19//20
f 24//25 18//18 20//22
f 25//8 23//24 21//12
f 27//26 24//25 23//24
f 28//27 22//28 24//25
f 14//7 27//26 25//8
f 16//19 28//27 27//26
f 15//21 26//17 28//27
f 3//2 18//18 1//3
f 6//1 5//5 3//2
f 7//4 8//16 5//5
f 12//6 9//9 14//7
f 9//9 10//11 17//10
f 10//11 11//13 21//12
f 11//13 12//6 25//8
f 5//5 8//16 4//14
f 7//4 6//1 1//3
f 8//16 7//4 2//15
f 26//17 13//23 3//2
f 2//15 22//28 26//17
f 18//18 22//28 2//15
f 12//6 11//13 10//11
f 17//10 19//20 16//19
f 19//20 20//22 15//21
f 20//22 18//18 13//23
f 21//12 23//24 19//20
f 23//24 24//25 20//22
f 24//25 22//28 18//18
f 25//8 27//26 23//24
f 27//26 28//27 24//25
f 28//27 26//17 22//28
f 14//7 16//19 27//26
f 16//19 15//21 28//27
f 15//21 13//23 26//17
f 3//2 13//23 18//18
