# Blender v2.79 (sub 0) OBJ File: 'Chess Scene.blend'
# www.blender.org
mtllib pawn.mtl
o ChessBoard_Grid.002
v -24.000000 0.000000 23.999998
v -18.000000 0.000000 23.999998
v -12.000000 0.000000 23.999998
v -24.000000 0.000000 17.999998
v -18.000000 0.000000 17.999998
v -12.000000 0.000000 17.999998
v -24.000000 0.000000 11.999999
v -18.000000 0.000000 11.999999
v -12.000000 0.000000 11.999999
v -24.000000 0.000000 11.999999
v -18.000000 0.000000 11.999999
v -12.000000 0.000000 11.999999
v -24.000000 0.000000 6.000000
v -18.000000 0.000000 6.000000
v -12.000000 0.000000 6.000000
v -24.000000 0.000000 0.000000
v -18.000000 0.000000 0.000000
v -12.000000 0.000000 0.000000
v -24.000000 0.000000 0.000000
v -18.000000 0.000000 0.000000
v -12.000000 0.000000 0.000000
v -24.000000 0.000000 -6.000000
v -18.000000 0.000000 -6.000000
v -12.000000 0.000000 -6.000000
v -24.000000 0.000000 -11.999999
v -18.000000 0.000000 -11.999999
v -12.000000 0.000000 -11.999999
v -24.000000 0.000000 -11.999999
v -18.000000 0.000000 -11.999999
v -12.000000 0.000000 -11.999999
v -24.000000 0.000000 -17.999998
v -18.000000 0.000000 -17.999998
v -12.000000 0.000000 -17.999998
v -24.000000 0.000000 -23.999998
v -18.000000 0.000000 -23.999998
v -12.000000 0.000000 -23.999998
v -12.000000 0.000000 23.999998
v -6.000000 0.000000 23.999998
v 0.000000 0.000000 23.999998
v -12.000000 0.000000 17.999998
v -6.000000 0.000000 17.999998
v 0.000000 0.000000 17.999998
v -12.000000 0.000000 11.999999
v -6.000000 0.000000 11.999999
v 0.000000 0.000000 11.999999
v -12.000000 0.000000 11.999999
v -6.000000 0.000000 11.999999
v 0.000000 0.000000 11.999999
v -12.000000 0.000000 6.000000
v -6.000000 0.000000 6.000000
v 0.000000 0.000000 6.000000
v -12.000000 0.000000 0.000000
v -6.000000 0.000000 0.000000
v 0.000000 0.000000 0.000000
v -12.000000 0.000000 0.000000
v -6.000000 0.000000 0.000000
v 0.000000 0.000000 0.000000
v -12.000000 0.000000 -6.000000
v -6.000000 0.000000 -6.000000
v 0.000000 0.000000 -6.000000
v -12.000000 0.000000 -11.999999
v -6.000000 0.000000 -11.999999
v 0.000000 0.000000 -11.999999
v -12.000000 0.000000 -11.999999
v -6.000000 0.000000 -11.999999
v 0.000000 0.000000 -11.999999
v -12.000000 0.000000 -17.999998
v -6.000000 0.000000 -17.999998
v 0.000000 0.000000 -17.999998
v -12.000000 0.000000 -23.999998
v -6.000000 0.000000 -23.999998
v 0.000000 0.000000 -23.999998
v 0.000000 0.000000 23.999998
v 6.000000 0.000000 23.999998
v 12.000000 0.000000 23.999998
v 0.000000 0.000000 17.999998
v 6.000000 0.000000 17.999998
v 12.000000 0.000000 17.999998
v 0.000000 0.000000 11.999999
v 6.000000 0.000000 11.999999
v 12.000000 0.000000 11.999999
v 0.000000 0.000000 11.999999
v 6.000000 0.000000 11.999999
v 12.000000 0.000000 11.999999
v 0.000000 0.000000 6.000000
v 6.000000 0.000000 6.000000
v 12.000000 0.000000 6.000000
v 0.000000 0.000000 0.000000
v 6.000000 0.000000 0.000000
v 12.000000 0.000000 0.000000
v 0.000000 0.000000 0.000000
v 6.000000 0.000000 0.000000
v 12.000000 0.000000 0.000000
v 0.000000 0.000000 -6.000000
v 6.000000 0.000000 -6.000000
v 12.000000 0.000000 -6.000000
v 0.000000 0.000000 -11.999999
v 6.000000 0.000000 -11.999999
v 12.000000 0.000000 -11.999999
v 0.000000 0.000000 -11.999999
v 6.000000 0.000000 -11.999999
v 12.000000 0.000000 -11.999999
v 0.000000 0.000000 -17.999998
v 6.000000 0.000000 -17.999998
v 12.000000 0.000000 -17.999998
v 0.000000 0.000000 -23.999998
v 6.000000 0.000000 -23.999998
v 12.000000 0.000000 -23.999998
v 12.000000 0.000000 23.999998
v 18.000000 0.000000 23.999998
v 24.000000 0.000000 23.999998
v 12.000000 0.000000 17.999998
v 18.000000 0.000000 17.999998
v 24.000000 0.000000 17.999998
v 12.000000 0.000000 11.999999
v 18.000000 0.000000 11.999999
v 24.000000 0.000000 11.999999
v 12.000000 0.000000 11.999999
v 18.000000 0.000000 11.999999
v 24.000000 0.000000 11.999999
v 12.000000 0.000000 6.000000
v 18.000000 0.000000 6.000000
v 24.000000 0.000000 6.000000
v 12.000000 0.000000 0.000000
v 18.000000 0.000000 0.000000
v 24.000000 0.000000 0.000000
v 12.000000 0.000000 0.000000
v 18.000000 0.000000 0.000000
v 24.000000 0.000000 0.000000
v 12.000000 0.000000 -6.000000
v 18.000000 0.000000 -6.000000
v 24.000000 0.000000 -6.000000
v 12.000000 0.000000 -11.999999
v 18.000000 0.000000 -11.999999
v 24.000000 0.000000 -11.999999
v 12.000000 0.000000 -11.999999
v 18.000000 0.000000 -11.999999
v 24.000000 0.000000 -11.999999
v 12.000000 0.000000 -17.999998
v 18.000000 0.000000 -17.999998
v 24.000000 0.000000 -17.999998
v 12.000000 0.000000 -23.999998
v 18.000000 0.000000 -23.999998
v 24.000000 0.000000 -23.999998
vn 0.0000 1.0000 0.0000
usemtl White
s 1
f 3//1 5//1 2//1
f 5//1 7//1 4//1
f 12//1 14//1 11//1
f 14//1 16//1 13//1
f 21//1 23//1 20//1
f 23//1 25//1 22//1
f 30//1 32//1 29//1
f 32//1 34//1 31//1
f 39//1 41//1 38//1
f 41//1 43//1 40//1
f 48//1 50//1 47//1
f 50//1 52//1 49//1
f 57//1 59//1 56//1
f 59//1 61//1 58//1
f 66//1 68//1 65//1
f 68//1 70//1 67//1
f 75//1 77//1 74//1
f 77//1 79//1 76//1
f 84//1 86//1 83//1
f 86//1 88//1 85//1
f 93//1 95//1 92//1
f 95//1 97//1 94//1
f 102//1 104//1 101//1
f 104//1 106//1 103//1
f 111//1 113//1 110//1
f 113//1 115//1 112//1
f 120//1 122//1 119//1
f 122//1 124//1 121//1
f 129//1 131//1 128//1
f 131//1 133//1 130//1
f 138//1 140//1 137//1
f 140//1 142//1 139//1
f 3//1 6//1 5//1
f 5//1 8//1 7//1
f 12//1 15//1 14//1
f 14//1 17//1 16//1
f 21//1 24//1 23//1
f 23//1 26//1 25//1
f 30//1 33//1 32//1
f 32//1 35//1 34//1
f 39//1 42//1 41//1
f 41//1 44//1 43//1
f 48//1 51//1 50//1
f 50//1 53//1 52//1
f 57//1 60//1 59//1
f 59//1 62//1 61//1
f 66//1 69//1 68//1
f 68//1 71//1 70//1
f 75//1 78//1 77//1
f 77//1 80//1 79//1
f 84//1 87//1 86//1
f 86//1 89//1 88//1
f 93//1 96//1 95//1
f 95//1 98//1 97//1
f 102//1 105//1 104//1
f 104//1 107//1 106//1
f 111//1 114//1 113//1
f 113//1 116//1 115//1
f 120//1 123//1 122//1
f 122//1 125//1 124//1
f 129//1 132//1 131//1
f 131//1 134//1 133//1
f 138//1 141//1 140//1
f 140//1 143//1 142//1
usemtl Black
f 2//1 4//1 1//1
f 6//1 8//1 5//1
f 11//1 13//1 10//1
f 15//1 17//1 14//1
f 20//1 22//1 19//1
f 24//1 26//1 23//1
f 29//1 31//1 28//1
f 33//1 35//1 32//1
f 38//1 40//1 37//1
f 42//1 44//1 41//1
f 47//1 49//1 46//1
f 51//1 53//1 50//1
f 56//1 58//1 55//1
f 60//1 62//1 59//1
f 65//1 67//1 64//1
f 69//1 71//1 68//1
f 74//1 76//1 73//1
f 78//1 80//1 77//1
f 83//1 85//1 82//1
f 87//1 89//1 86//1
f 92//1 94//1 91//1
f 96//1 98//1 95//1
f 101//1 103//1 100//1
f 105//1 107//1 104//1
f 110//1 112//1 109//1
f 114//1 116//1 113//1
f 119//1 121//1 118//1
f 123//1 125//1 122//1
f 128//1 130//1 127//1
f 132//1 134//1 131//1
f 137//1 139//1 136//1
f 141//1 143//1 140//1
f 2//1 5//1 4//1
f 6//1 9//1 8//1
f 11//1 14//1 13//1
f 15//1 18//1 17//1
f 20//1 23//1 22//1
f 24//1 27//1 26//1
f 29//1 32//1 31//1
f 33//1 36//1 35//1
f 38//1 41//1 40//1
f 42//1 45//1 44//1
f 47//1 50//1 49//1
f 51//1 54//1 53//1
f 56//1 59//1 58//1
f 60//1 63//1 62//1
f 65//1 68//1 67//1
f 69//1 72//1 71//1
f 74//1 77//1 76//1
f 78//1 81//1 80//1
f 83//1 86//1 85//1
f 87//1 90//1 89//1
f 92//1 95//1 94//1
f 96//1 99//1 98//1
f 101//1 104//1 103//1
f 105//1 108//1 107//1
f 110//1 113//1 112//1
f 114//1 117//1 116//1
f 119//1 122//1 121//1
f 123//1 126//1 125//1
f 128//1 131//1 130//1
f 132//1 135//1 134//1
f 137//1 140//1 139//1
f 141//1 144//1 143//1
